{"title":"Team.America.World.Police.2004.DVDRip.720p.x264.Iou1","uid":8530852,"size":1466947800,"categoryP":"video","categoryS":"hd___movies","magnet":"?xt=urn:btih:aa7c23032ccef013aef53a71c22bf1cd0302b941&amp;dn=Team.America.World.Police.2004.DVDRip.720p.x264.Iou1&amp;tr=udp%3A%2F%2Ftracker.openbittorrent.com%3A80&amp;tr=udp%3A%2F%2Fopen.demonii.com%3A1337&amp;tr=udp%3A%2F%2Ftracker.coppersurfer.tk%3A6969&amp;tr=udp%3A%2F%2Fexodus.desync.com%3A6969","seeders":1,"leechers":0,"uploader":"jaybee211","files":-1,"time":1370141769,"description":"Format                                   : MPEG-4\nFormat profile                           : Base Media / Version 2\nCodec ID                                 : mp42\nFile size                                : 1.37 GiB\nDuration                                 : 1h 33mn\nOverall bit rate mode                    : Variable\nOverall bit rate                         : 2 088 Kbps\n\nVideo\nID                                       : 1\nFormat                                   : AVC\nFormat/Info                              : Advanced Video Codec\nFormat profile                           : &lt;a class=&quot;__cf_email__&quot; href=&quot;/cdn-cgi/l/email-protection&quot; data-cfemail=&quot;d79fbeb0bf979be4f9e6&quot;&gt;[email&amp;#160;protected]&lt;/a&gt;&lt;script cf-hash='f9e31' type=&quot;text/javascript&quot;&gt;\n/* &lt;![CDATA[ */!function(){try{var t=&quot;currentScript&quot;in document?document.currentScript:function(){for(var t=document.getElementsByTagName(&quot;script&quot;),e=t.length;e--;)if(t[e].getAttribute(&quot;cf-hash&quot;))return t[e]}();if(t&amp;&amp;t.previousSibling){var e,r,n,i,c=t.previousSibling,a=c.getAttribute(&quot;data-cfemail&quot;);if(a){for(e=&quot;&quot;,r=parseInt(a.substr(0,2),16),n=2;a.length-n;n+=2)i=parseInt(a.substr(n,2),16)^r,e+=String.fromCharCode(i);e=document.createTextNode(e),c.parentNode.replaceChild(e,c)}}}catch(u){}}();/* ]]&gt; */&lt;/script&gt;\nFormat settings, CABAC                   : Yes\nFormat settings, ReFrames                : 4 frames\nCodec ID                                 : avc1\nCodec ID/Info                            : Advanced Video Coding\nDuration                                 : 1h 33mn\nBit rate mode                            : Variable\nBit rate                                 : 1 770 Kbps\nMaximum bit rate                         : 11.0 Mbps\nWidth                                    : 1 280 pixels\nHeight                                   : 532 pixels\nDisplay aspect ratio                     : 2.40:1\nFrame rate mode                          : Constant\nFrame rate                               : 25.000 fps\nColor space                              : YUV\nChroma subsampling                       : 4:2:0\nBit depth                                : 8 bits\nScan type                                : Progressive\nBits/(Pixel*Frame)                       : 0.104\nStream size                              : 1.16 GiB (85%)\nLanguage                                 : English\n\nAudio\nID                                       : 2\nFormat                                   : AAC\nFormat/Info                              : Advanced Audio Codec\nFormat profile                           : LC\nCodec ID                                 : 40\nDuration                                 : 1h 33mn\nBit rate mode                            : Variable\nBit rate                                 : 314 Kbps\nMaximum bit rate                         : 353 Kbps\nChannel(s)                               : 6 channels\nChannel positions                        : Front: L C R, Side: L R, LFE\nSampling rate                            : 48.0 KHz\nCompression mode                         : Lossy\nDelay relative to video                  : 40ms\nStream size                              : 210 MiB (15%)\nTitle                                    : eng\nLanguage                                 : English\nSubtitles                                : None\n\nIMDB. &lt;a href=&quot; http://www.imdb.com/title/tt0372588/&quot; rel=&quot;nofollow&quot; target=&quot;_NEW&quot;&gt; http://www.imdb.com/title/tt0372588/&lt;/a&gt;\n\nStoryline.\nThe North American anti-terrorist force Team America attacks a group of terrorist in Paris. Later, the leader of the organization, Spottswoode, invites the famous Broadway actor Gary Johnston to join his world police and work undercover in Cairo in a terrorist organization and disclose their plan of destroying the world. The Team America destroy the cell of terrorists, but then the Panama Canal is attacked by the criminals as a payback. Gary feels responsible for the death of many innocents and leaves the counter-terrorism organization. When the leader of North Korea, Kim Jong II, joins a group of pacifist actors and actresses with the intention of using weapons of massive destruction, the Team America tries to avoid the destruction of the world.\n\nScreens. &lt;a href=&quot; http://bayimg.com/LAnFLaaEa&quot; rel=&quot;nofollow&quot; target=&quot;_NEW&quot;&gt; http://bayimg.com/LAnFLaaEa&lt;/a&gt;\n\n         &lt;a href=&quot; http://bayimg.com/LaNfNAaEa&quot; rel=&quot;nofollow&quot; target=&quot;_NEW&quot;&gt; http://bayimg.com/LaNfNAaEa&lt;/a&gt;\n\n         &lt;a href=&quot; http://bayimg.com/laNFOAAeA&quot; rel=&quot;nofollow&quot; target=&quot;_NEW&quot;&gt; http://bayimg.com/laNFOAAeA&lt;/a&gt;\n\n         &lt;a href=&quot; http://bayimg.com/maNFaAAEA&quot; rel=&quot;nofollow&quot; target=&quot;_NEW&quot;&gt; http://bayimg.com/maNFaAAEA&lt;/a&gt;\n\nEnjoy.","torrent":{"xt":"urn:btih:aa7c23032ccef013aef53a71c22bf1cd0302b941","amp;dn":"Team.America.World.Police.2004.DVDRip.720p.x264.Iou1","amp;tr":["udp%3A%2F%2Ftracker.openbittorrent.com%3A80","udp%3A%2F%2Fopen.demonii.com%3A1337","udp%3A%2F%2Ftracker.coppersurfer.tk%3A6969","udp%3A%2F%2Fexodus.desync.com%3A6969"],"infoHash":"aa7c23032ccef013aef53a71c22bf1cd0302b941","infoHashBuffer":{"type":"Buffer","data":[170,124,35,3,44,206,240,19,174,245,58,113,194,43,241,205,3,2,185,65]},"announce":[],"urlList":[]}}